<svg xmlns="http://www.w3.org/2000/svg" width="852" height="1117" viewBox="0 0 852 1117" fill="none">
<g filter="url(#filter0_f_432_2252)">
<path d="M-167 135.842C-156.143 124.985 -91.0434 97.6431 -77.945 89.7841C-43.3822 69.0464 -6.65033 47.2908 31.2537 33.3421C63.206 21.5837 131.099 58.3771 163.921 49.5402C195.309 41.0897 237.051 38.312 269 33.3421C306.072 27.5754 392.558 34.7993 430 34.7993C449.149 34.7993 463.311 76.1251 430 84.4527C409.254 89.6393 374.586 93.9853 338.872 111.842C313.873 124.342 280.294 112.422 255.082 124.408C220.639 140.783 184.129 153.375 148.987 168.243C119.381 180.768 90.2344 192.992 59.9596 203.931C55.7769 205.443 2.01537 223.183 14.7672 235.934C26.3778 247.545 67.5756 246.437 82.4588 247.766C131.973 252.187 188.589 265.116 238.014 270.842C316.979 279.991 396.801 309.402 443.804 287.842C490.807 266.282 574.726 272.342 574.726 320.342C574.726 368.342 487.133 371.561 466.497 380.342C424.96 398.017 377.367 419.734 331.89 422.717C292.011 425.332 251.875 420.763 212.023 424.656C186.518 427.148 147.551 426.737 124.354 439.785C119.599 442.46 124.354 467.342 141.5 464.342C182.539 466.651 199.701 459.196 240.5 464.342C273.613 468.519 291.165 474.505 322.5 486.342C343.186 494.157 343.624 496.291 364.5 503.597C372.064 506.245 418 497.863 443.804 503.597C456.342 506.384 466.497 516.749 478.522 525.127C506.251 544.443 546.391 535.127 574.726 553.342C593.084 565.144 601.954 599.527 620.112 611.632C634.532 621.246 669.5 611.632 698.5 618.842C727.5 626.052 759.705 676.484 756 699.342C752.295 722.201 561.502 677.37 526 679.342C449.598 683.587 415.67 694.71 338.872 691.543C278.45 689.052 219.693 673.209 160.042 664.777C159.419 664.689 100 636.842 120.863 662.837C128.157 674.3 152.524 684.701 163.534 691.931C258.672 754.41 263.833 706.361 364.5 756.342C394.926 771.449 514.878 846.581 540 869.842C545.632 875.057 574.726 883.707 574.726 910.135C574.726 936.562 539 960.342 489 960.342C439 960.342 410.5 920.842 364.5 920.842C318.5 920.842 287.45 896.689 238.014 890.933C146.436 880.27 133.77 891.574 42.5 878.326C16.5391 874.557 -18.3659 857.115 -44.5 854.842C-61.1441 853.395 -119.37 841.842 -94.2375 878.326C-80.8725 897.726 -67.4258 917.176 -53.7002 936.319C-35.2459 962.058 2.52537 964.478 31.2537 961.728C82.5 952.342 294.353 1078.2 296 1107.84C297.647 1137.49 155 1085.34 120.863 1084.34C86.7252 1083.34 20.5 1086.84 -9.5 1077.84C-39.5 1068.84 -44.5 1068.34 -64.1739 1055.02" stroke="black" stroke-width="150" stroke-linecap="round"/>
</g>
<defs>
<filter id="filter0_f_432_2252" x="-262" y="-64.0043" width="1113.29" height="1275.96" filterUnits="userSpaceOnUse" color-interpolation-filters="sRGB">
<feFlood flood-opacity="0" result="BackgroundImageFix"/>
<feBlend mode="normal" in="SourceGraphic" in2="BackgroundImageFix" result="shape"/>
<feGaussianBlur stdDeviation="10" result="effect1_foregroundBlur_432_2252"/>
</filter>
</defs>
</svg>