<svg width="790" height="536" viewBox="0 0 790 536" fill="none" xmlns="http://www.w3.org/2000/svg">
<g filter="url(#filter0_b_169_402)">
<path d="M17.4688 208H12.4688V213H17.4688V208ZM17.4688 62V57H12.4688V62H17.4688ZM39.0688 62H44.0688V57H39.0688V62ZM39.0688 122.4H34.0688V127.4H39.0688V122.4ZM81.8688 122.4V127.4H86.8688V122.4H81.8688ZM81.8688 62V57H76.8688V62H81.8688ZM103.469 62H108.469V57H103.469V62ZM103.469 208V213H108.469V208H103.469ZM81.8688 208H76.8688V213H81.8688V208ZM81.8688 142.4H86.8688V137.4H81.8688V142.4ZM39.0688 142.4V137.4H34.0688V142.4H39.0688ZM39.0688 208V213H44.0688V208H39.0688ZM22.4688 208V62H12.4688V208H22.4688ZM17.4688 67H39.0688V57H17.4688V67ZM34.0688 62V122.4H44.0688V62H34.0688ZM39.0688 127.4H81.8688V117.4H39.0688V127.4ZM86.8688 122.4V62H76.8688V122.4H86.8688ZM81.8688 67H103.469V57H81.8688V67ZM98.4688 62V208H108.469V62H98.4688ZM103.469 203H81.8688V213H103.469V203ZM86.8688 208V142.4H76.8688V208H86.8688ZM81.8688 137.4H39.0688V147.4H81.8688V137.4ZM34.0688 142.4V208H44.0688V142.4H34.0688ZM39.0688 203H17.4688V213H39.0688V203ZM161.991 198.6L158.424 202.105L158.44 202.12L158.455 202.136L161.991 198.6ZM150.591 62V57H145.591V62H150.591ZM172.191 62H177.191V57H172.191V62ZM177.591 184.6L173.769 187.824L173.798 187.859L173.828 187.893L177.591 184.6ZM210.991 184.6L207.228 181.307L210.991 184.6ZM216.591 62V57H211.591V62H216.591ZM238.191 62H243.191V57H238.191V62ZM226.791 198.6L230.326 202.136L230.342 202.12L230.357 202.105L226.791 198.6ZM194.391 205C181.299 205 171.929 201.468 165.526 195.064L158.455 202.136C167.252 210.932 179.482 215 194.391 215V205ZM165.557 195.095C159.068 188.493 155.591 179.392 155.591 167.2H145.591C145.591 181.408 149.713 193.24 158.424 202.105L165.557 195.095ZM155.591 167.2V62H145.591V167.2H155.591ZM150.591 67H172.191V57H150.591V67ZM167.191 62V167.2H177.191V62H167.191ZM167.191 167.2C167.191 175.338 169.197 182.405 173.769 187.824L181.412 181.376C178.784 178.261 177.191 173.728 177.191 167.2H167.191ZM173.828 187.893C178.789 193.562 185.967 196 194.391 196V186C187.881 186 183.859 184.171 181.354 181.307L173.828 187.893ZM194.391 196C202.714 196 209.809 193.543 214.754 187.893L207.228 181.307C204.705 184.19 200.734 186 194.391 186V196ZM214.754 187.893C219.495 182.473 221.591 175.381 221.591 167.2H211.591C211.591 173.686 209.953 178.193 207.228 181.307L214.754 187.893ZM221.591 167.2V62H211.591V167.2H221.591ZM216.591 67H238.191V57H216.591V67ZM233.191 62V167.2H243.191V62H233.191ZM233.191 167.2C233.191 179.392 229.713 188.493 223.224 195.095L230.357 202.105C239.068 193.24 243.191 181.408 243.191 167.2H233.191ZM223.255 195.064C216.852 201.468 207.482 205 194.391 205V215C209.299 215 221.529 210.932 230.326 202.136L223.255 195.064ZM284.513 208H279.513V213H284.513V208ZM284.513 62V57H279.513V62H284.513ZM311.712 62L316.43 60.3444L315.257 57H311.712V62ZM354.312 183.4L349.595 185.056L359.301 183.056L354.312 183.4ZM353.312 169.6L348.327 169.974L353.312 169.6ZM352.312 153L347.314 153.116L347.315 153.174L347.318 153.232L352.312 153ZM352.113 62V57H347.113V62H352.113ZM372.113 62H377.113V57H372.113V62ZM372.113 208V213H377.113V208H372.113ZM344.913 208L340.192 209.649L341.363 213H344.913V208ZM302.513 86.6L307.233 84.9514L297.527 86.9835L302.513 86.6ZM303.312 99.6L298.319 99.8561L298.322 99.9198L298.327 99.9835L303.312 99.6ZM304.112 115.8L299.114 115.919L299.115 115.978L299.118 116.038L304.112 115.8ZM304.513 208V213H309.513V208H304.513ZM289.513 208V62H279.513V208H289.513ZM284.513 67H311.712V57H284.513V67ZM306.995 63.6556L349.595 185.056L359.03 181.744L316.43 60.3444L306.995 63.6556ZM359.301 183.056C359.033 179.176 358.699 174.566 358.298 169.226L348.327 169.974C348.726 175.301 349.059 179.89 349.324 183.744L359.301 183.056ZM358.298 169.226C357.902 163.943 357.572 158.457 357.307 152.768L347.318 153.232C347.587 159.009 347.923 164.59 348.327 169.974L358.298 169.226ZM357.311 152.884C357.179 147.181 357.113 142.02 357.113 137.4H347.113C347.113 142.113 347.18 147.353 347.314 153.116L357.311 152.884ZM357.113 137.4V62H347.113V137.4H357.113ZM352.113 67H372.113V57H352.113V67ZM367.113 62V208H377.113V62H367.113ZM372.113 203H344.913V213H372.113V203ZM349.633 206.351L307.233 84.9514L297.792 88.2486L340.192 209.649L349.633 206.351ZM297.527 86.9835C297.789 90.3925 298.054 94.6799 298.319 99.8561L308.306 99.3439C308.038 94.12 307.769 89.7408 307.498 86.2165L297.527 86.9835ZM298.327 99.9835C298.72 105.089 298.983 110.401 299.114 115.919L309.111 115.681C308.976 109.999 308.705 104.511 308.298 99.2165L298.327 99.9835ZM299.118 116.038C299.382 121.571 299.513 126.691 299.513 131.4H309.513C309.513 126.509 309.377 121.229 309.107 115.562L299.118 116.038ZM299.513 131.4V208H309.513V131.4H299.513ZM304.513 203H284.513V213H304.513V203ZM451.434 208H446.434V213H451.434V208ZM451.434 81.8H456.434V76.8H451.434V81.8ZM412.434 81.8H407.434V86.8H412.434V81.8ZM412.434 61.8V56.8H407.434V61.8H412.434ZM512.034 61.8H517.034V56.8H512.034V61.8ZM512.034 81.8V86.8H517.034V81.8H512.034ZM473.034 81.8V76.8H468.034V81.8H473.034ZM473.034 208V213H478.034V208H473.034ZM456.434 208V81.8H446.434V208H456.434ZM451.434 76.8H412.434V86.8H451.434V76.8ZM417.434 81.8V61.8H407.434V81.8H417.434ZM412.434 66.8H512.034V56.8H412.434V66.8ZM507.034 61.8V81.8H517.034V61.8H507.034ZM512.034 76.8H473.034V86.8H512.034V76.8ZM468.034 81.8V208H478.034V81.8H468.034ZM473.034 203H451.434V213H473.034V203ZM554.956 208H549.956V213H554.956V208ZM554.956 62V57H549.956V62H554.956ZM640.756 62H645.756V57H640.756V62ZM640.756 81.2V86.2H645.756V81.2H640.756ZM576.156 81.2V76.2H571.156V81.2H576.156ZM576.156 122.6H571.156V127.6H576.156V122.6ZM633.756 122.6H638.756V117.6H633.756V122.6ZM633.756 141.6V146.6H638.756V141.6H633.756ZM576.156 141.6V136.6H571.156V141.6H576.156ZM576.156 188.8H571.156V193.8H576.156V188.8ZM640.756 188.8H645.756V183.8H640.756V188.8ZM640.756 208V213H645.756V208H640.756ZM559.956 208V62H549.956V208H559.956ZM554.956 67H640.756V57H554.956V67ZM635.756 62V81.2H645.756V62H635.756ZM640.756 76.2H576.156V86.2H640.756V76.2ZM571.156 81.2V122.6H581.156V81.2H571.156ZM576.156 127.6H633.756V117.6H576.156V127.6ZM628.756 122.6V141.6H638.756V122.6H628.756ZM633.756 136.6H576.156V146.6H633.756V136.6ZM571.156 141.6V188.8H581.156V141.6H571.156ZM576.156 193.8H640.756V183.8H576.156V193.8ZM635.756 188.8V208H645.756V188.8H635.756ZM640.756 203H554.956V213H640.756V203ZM686.878 208H681.878V213H686.878V208ZM686.878 62V57H681.878V62H686.878ZM756.678 67.4L754.339 71.8189L754.373 71.837L754.407 71.8545L756.678 67.4ZM772.478 82.2L768.159 84.7194L768.179 84.7526L768.199 84.7856L772.478 82.2ZM770.678 130.2L766.589 127.323L766.584 127.33L766.578 127.338L770.678 130.2ZM750.478 145.2L748.853 140.472L743.563 142.29L745.961 147.344L750.478 145.2ZM780.278 208V213H788.185L784.795 205.856L780.278 208ZM755.678 208L751.107 210.026L752.425 213H755.678V208ZM729.078 148L733.649 145.974L732.331 143H729.078V148ZM708.478 148V143H703.478V148H708.478ZM708.478 208V213H713.478V208H708.478ZM708.478 129H703.478V134H708.478V129ZM749.878 122.6L753.414 126.136L753.441 126.108L753.468 126.081L749.878 122.6ZM749.878 87.6L753.414 84.0645L749.878 87.6ZM708.478 81.2V76.2H703.478V81.2H708.478ZM691.878 208V62H681.878V208H691.878ZM686.878 67H732.678V57H686.878V67ZM732.678 67C741.221 67 748.388 68.6685 754.339 71.8189L759.018 62.9811C751.368 58.9315 742.535 57 732.678 57V67ZM754.407 71.8545C760.38 74.8997 764.924 79.1734 768.159 84.7194L776.797 79.6806C772.565 72.4266 766.576 66.8337 758.949 62.9455L754.407 71.8545ZM768.199 84.7856C771.523 90.2884 773.278 96.8975 773.278 104.8H783.278C783.278 95.3692 781.166 86.9116 776.758 79.6144L768.199 84.7856ZM773.278 104.8C773.278 113.617 771.001 121.053 766.589 127.323L774.767 133.077C780.489 124.947 783.278 115.45 783.278 104.8H773.278ZM766.578 127.338C762.281 133.494 756.435 137.865 748.853 140.472L752.104 149.928C761.588 146.668 769.209 141.04 774.778 133.062L766.578 127.338ZM745.961 147.344L775.761 210.144L784.795 205.856L754.995 143.056L745.961 147.344ZM780.278 203H755.678V213H780.278V203ZM760.249 205.974L733.649 145.974L724.507 150.026L751.107 210.026L760.249 205.974ZM729.078 143H708.478V153H729.078V143ZM703.478 148V208H713.478V148H703.478ZM708.478 203H686.878V213H708.478V203ZM708.478 134H732.678V124H708.478V134ZM732.678 134C740.929 134 748.031 131.518 753.414 126.136L746.343 119.064C743.192 122.216 738.827 124 732.678 124V134ZM753.468 126.081C758.795 120.587 761.278 113.456 761.278 105.2H751.278C751.278 111.344 749.494 115.813 746.289 119.119L753.468 126.081ZM761.278 105.2C761.278 96.7409 758.83 89.481 753.414 84.0645L746.343 91.1355C749.459 94.2523 751.278 98.7257 751.278 105.2H761.278ZM753.414 84.0645C748.031 78.6822 740.929 76.2 732.678 76.2V86.2C738.827 86.2 743.192 87.9844 746.343 91.1355L753.414 84.0645ZM732.678 76.2H708.478V86.2H732.678V76.2ZM703.478 81.2V129H713.478V81.2H703.478ZM162.391 415.8H157.391V420.8H162.391V415.8ZM162.391 396.2V391.2H157.391V396.2H162.391ZM226.391 396.2H231.391V391.2H226.391V396.2ZM226.391 415.8V420.8H231.391V415.8H226.391ZM167.391 415.8V396.2H157.391V415.8H167.391ZM162.391 401.2H226.391V391.2H162.391V401.2ZM221.391 396.2V415.8H231.391V396.2H221.391ZM226.391 410.8H162.391V420.8H226.391V410.8ZM287.112 472H282.112V477H287.112V472ZM287.112 326V321H282.112V326H287.112ZM372.913 326H377.913V321H372.913V326ZM372.913 345.2V350.2H377.913V345.2H372.913ZM308.312 345.2V340.2H303.312V345.2H308.312ZM308.312 386.6H303.312V391.6H308.312V386.6ZM365.913 386.6H370.913V381.6H365.913V386.6ZM365.913 405.6V410.6H370.913V405.6H365.913ZM308.312 405.6V400.6H303.312V405.6H308.312ZM308.312 452.8H303.312V457.8H308.312V452.8ZM372.913 452.8H377.913V447.8H372.913V452.8ZM372.913 472V477H377.913V472H372.913ZM292.112 472V326H282.112V472H292.112ZM287.112 331H372.913V321H287.112V331ZM367.913 326V345.2H377.913V326H367.913ZM372.913 340.2H308.312V350.2H372.913V340.2ZM303.312 345.2V386.6H313.312V345.2H303.312ZM308.312 391.6H365.913V381.6H308.312V391.6ZM360.913 386.6V405.6H370.913V386.6H360.913ZM365.913 400.6H308.312V410.6H365.913V400.6ZM303.312 405.6V452.8H313.312V405.6H303.312ZM308.312 457.8H372.913V447.8H308.312V457.8ZM367.913 452.8V472H377.913V452.8H367.913ZM372.913 467H287.112V477H372.913V467ZM447.834 472L442.988 473.228L443.943 477H447.834V472ZM410.834 326V321H404.409L405.988 327.228L410.834 326ZM433.034 326L437.896 324.83L436.974 321H433.034V326ZM456.434 423.2L451.573 424.37L451.582 424.405L451.59 424.439L456.434 423.2ZM460.234 440.4L455.319 441.315L455.331 441.381L455.345 441.448L460.234 440.4ZM462.834 453.6L457.902 454.422H467.766L462.834 453.6ZM465.034 440.4L460.119 439.485L460.11 439.532L460.102 439.578L465.034 440.4ZM468.834 423L473.685 424.213L473.691 424.188L473.697 424.163L468.834 423ZM492.034 326V321H488.089L487.172 324.837L492.034 326ZM513.634 326L518.48 327.235L520.068 321H513.634V326ZM476.434 472V477H480.32L481.28 473.235L476.434 472ZM452.681 470.772L415.681 324.772L405.988 327.228L442.988 473.228L452.681 470.772ZM410.834 331H433.034V321H410.834V331ZM428.173 327.17L451.573 424.37L461.296 422.03L437.896 324.83L428.173 327.17ZM451.59 424.439C453.03 430.067 454.273 435.692 455.319 441.315L465.15 439.485C464.063 433.642 462.772 427.8 461.278 421.961L451.59 424.439ZM455.345 441.448C456.539 447.02 457.388 451.334 457.902 454.422L467.766 452.778C467.214 449.466 466.329 444.98 465.123 439.352L455.345 441.448ZM467.766 454.422C468.3 451.222 469.033 446.822 469.966 441.222L460.102 439.578C459.169 445.178 458.436 449.578 457.902 452.778L467.766 454.422ZM469.95 441.315C470.997 435.685 472.242 429.984 473.685 424.213L463.984 421.787C462.493 427.749 461.205 433.648 460.119 439.485L469.95 441.315ZM473.697 424.163L496.897 327.163L487.172 324.837L463.972 421.837L473.697 424.163ZM492.034 331H513.634V321H492.034V331ZM508.789 324.765L471.589 470.765L481.28 473.235L518.48 327.235L508.789 324.765ZM476.434 467H447.834V477H476.434V467ZM554.956 472H549.956V477H554.956V472ZM554.956 326V321H549.956V326H554.956ZM640.756 326H645.756V321H640.756V326ZM640.756 345.2V350.2H645.756V345.2H640.756ZM576.156 345.2V340.2H571.156V345.2H576.156ZM576.156 386.6H571.156V391.6H576.156V386.6ZM633.756 386.6H638.756V381.6H633.756V386.6ZM633.756 405.6V410.6H638.756V405.6H633.756ZM576.156 405.6V400.6H571.156V405.6H576.156ZM576.156 452.8H571.156V457.8H576.156V452.8ZM640.756 452.8H645.756V447.8H640.756V452.8ZM640.756 472V477H645.756V472H640.756ZM559.956 472V326H549.956V472H559.956ZM554.956 331H640.756V321H554.956V331ZM635.756 326V345.2H645.756V326H635.756ZM640.756 340.2H576.156V350.2H640.756V340.2ZM571.156 345.2V386.6H581.156V345.2H571.156ZM576.156 391.6H633.756V381.6H576.156V391.6ZM628.756 386.6V405.6H638.756V386.6H628.756ZM633.756 400.6H576.156V410.6H633.756V400.6ZM571.156 405.6V452.8H581.156V405.6H571.156ZM576.156 457.8H640.756V447.8H576.156V457.8ZM635.756 452.8V472H645.756V452.8H635.756ZM640.756 467H554.956V477H640.756V467ZM686.278 472H681.278V477H686.278V472ZM686.278 326V321H681.278V326H686.278ZM713.478 326L718.196 324.344L717.023 321H713.478V326ZM756.078 447.4L751.36 449.056L761.066 447.056L756.078 447.4ZM755.078 433.6L750.092 433.974L755.078 433.6ZM754.078 417L749.079 417.116L749.081 417.174L749.084 417.232L754.078 417ZM753.878 326V321H748.878V326H753.878ZM773.878 326H778.878V321H773.878V326ZM773.878 472V477H778.878V472H773.878ZM746.678 472L741.958 473.649L743.128 477H746.678V472ZM704.278 350.6L708.999 348.951L699.293 350.983L704.278 350.6ZM705.078 363.6L700.085 363.856L700.088 363.92L700.093 363.983L705.078 363.6ZM705.878 379.8L700.88 379.919L700.881 379.978L700.884 380.038L705.878 379.8ZM706.278 472V477H711.278V472H706.278ZM691.278 472V326H681.278V472H691.278ZM686.278 331H713.478V321H686.278V331ZM708.76 327.656L751.36 449.056L760.796 445.744L718.196 324.344L708.76 327.656ZM761.066 447.056C760.799 443.176 760.465 438.566 760.064 433.226L750.092 433.974C750.492 439.301 750.824 443.89 751.09 447.744L761.066 447.056ZM760.064 433.226C759.668 427.943 759.337 422.457 759.073 416.768L749.084 417.232C749.352 423.009 749.688 428.59 750.092 433.974L760.064 433.226ZM759.077 416.884C758.944 411.181 758.878 406.02 758.878 401.4H748.878C748.878 406.113 748.945 411.353 749.079 417.116L759.077 416.884ZM758.878 401.4V326H748.878V401.4H758.878ZM753.878 331H773.878V321H753.878V331ZM768.878 326V472H778.878V326H768.878ZM773.878 467H746.678V477H773.878V467ZM751.398 470.351L708.999 348.951L699.558 352.249L741.958 473.649L751.398 470.351ZM699.293 350.983C699.555 354.392 699.819 358.68 700.085 363.856L710.072 363.344C709.804 358.12 709.534 353.741 709.263 350.216L699.293 350.983ZM700.093 363.983C700.486 369.089 700.748 374.401 700.88 379.919L710.877 379.681C710.741 373.999 710.471 368.511 710.063 363.217L700.093 363.983ZM700.884 380.038C701.147 385.571 701.278 390.691 701.278 395.4H711.278C711.278 390.509 711.142 385.229 710.872 379.562L700.884 380.038ZM701.278 395.4V472H711.278V395.4H701.278ZM706.278 467H686.278V477H706.278V467Z" fill="#FF0000"/>
</g>
<defs>
<filter id="filter0_b_169_402" x="-20" y="-20" width="830" height="576" filterUnits="userSpaceOnUse" color-interpolation-filters="sRGB">
<feFlood flood-opacity="0" result="BackgroundImageFix"/>
<feGaussianBlur in="BackgroundImageFix" stdDeviation="10"/>
<feComposite in2="SourceAlpha" operator="in" result="effect1_backgroundBlur_169_402"/>
<feBlend mode="normal" in="SourceGraphic" in2="effect1_backgroundBlur_169_402" result="shape"/>
</filter>
</defs>
</svg>
